<?xml version="1.0" encoding="UTF-8"?> <svg xmlns="http://www.w3.org/2000/svg" width="898" height="898" viewBox="0 0 898 898" fill="none"><path d="M39.2901 278.641C19.8582 321.668 -8.90422 404.047 2.65537 506.507C17.4881 637.953 90.925 741.593 162.357 799.831C399.4 993.08 833.325 868.237 890.784 686.2C901.211 653.173 898.273 621.323 894.673 582.128C883.202 457.475 822.778 420.422 782.144 288.068C745.161 167.613 781.624 154.062 747.042 100.507C672.028 -15.6531 455.493 -21.5078 306.5 34.1844C249.275 55.5723 110.401 121.19 39.2901 278.641Z" fill="#BF0010"></path><path d="M390.677 359.668C390.514 359.668 390.351 359.642 390.188 359.593C386.096 358.307 381.924 357.082 377.783 355.945C376.919 355.712 376.408 354.818 376.646 353.954C376.889 353.091 377.778 352.584 378.642 352.818C382.818 353.959 387.03 355.197 391.162 356.496C392.012 356.76 392.492 357.672 392.224 358.527C392.003 359.219 391.364 359.668 390.677 359.668ZM415.158 368.333C414.955 368.333 414.752 368.294 414.559 368.214C410.576 366.642 406.501 365.117 402.448 363.681C401.607 363.382 401.166 362.457 401.461 361.615C401.765 360.765 402.691 360.324 403.536 360.624C407.625 362.069 411.735 363.606 415.752 365.201C416.585 365.527 416.995 366.47 416.664 367.302C416.418 367.941 415.805 368.333 415.158 368.333ZM438.942 378.752C438.709 378.752 438.471 378.699 438.237 378.589C434.365 376.725 430.413 374.906 426.493 373.188C425.669 372.827 425.299 371.871 425.66 371.051C426.017 370.228 426.973 369.858 427.801 370.214C431.753 371.95 435.744 373.783 439.651 375.673C440.457 376.056 440.797 377.029 440.405 377.836C440.127 378.413 439.546 378.752 438.942 378.752ZM461.911 390.875C461.634 390.875 461.356 390.805 461.101 390.66C457.378 388.519 453.568 386.413 449.775 384.417C448.986 383.999 448.682 383.016 449.101 382.223C449.519 381.43 450.502 381.131 451.299 381.545C455.118 383.563 458.96 385.686 462.722 387.845C463.497 388.294 463.766 389.281 463.317 390.06C463.017 390.58 462.471 390.875 461.911 390.875ZM483.938 404.624C483.63 404.624 483.308 404.536 483.031 404.347C479.484 401.95 475.841 399.58 472.194 397.307C471.431 396.831 471.198 395.823 471.674 395.065C472.149 394.307 473.154 394.078 473.907 394.549C477.59 396.849 481.273 399.241 484.85 401.66C485.595 402.157 485.788 403.166 485.286 403.911C484.973 404.373 484.462 404.624 483.938 404.624ZM504.916 419.933C504.568 419.933 504.216 419.818 503.916 419.585C500.542 416.933 497.075 414.307 493.608 411.774C492.885 411.25 492.727 410.237 493.255 409.51C493.784 408.783 494.802 408.629 495.524 409.158C499.022 411.708 502.515 414.36 505.921 417.034C506.63 417.589 506.749 418.607 506.194 419.307C505.872 419.721 505.397 419.933 504.916 419.933ZM524.74 436.704C524.348 436.704 523.961 436.567 523.648 436.286C520.472 433.391 517.198 430.523 513.93 427.752C513.247 427.175 513.163 426.153 513.745 425.47C514.322 424.783 515.348 424.695 516.035 425.277C519.331 428.07 522.63 430.964 525.837 433.88C526.498 434.484 526.547 435.51 525.943 436.175C525.626 436.528 525.185 436.704 524.74 436.704ZM543.309 454.854C542.881 454.854 542.454 454.687 542.137 454.356C539.181 451.246 536.124 448.154 533.053 445.149C532.41 444.528 532.401 443.497 533.031 442.858C533.657 442.22 534.683 442.202 535.326 442.832C538.423 445.863 541.503 448.982 544.485 452.114C545.102 452.766 545.08 453.792 544.432 454.409C544.119 454.709 543.71 454.854 543.309 454.854Z" fill="white"></path><path d="M532.027 138.388C516.599 132.133 509.159 114.551 515.41 99.1146C521.665 83.6871 539.243 76.2421 554.683 82.4933C570.115 88.7489 577.551 106.331 571.3 121.767C565.04 137.194 547.458 144.639 532.027 138.388ZM597.314 138.622L601.71 127.767L591.203 120.476C591.767 117.776 592.115 115.066 592.212 112.375L604.168 107.868L602.556 96.2688L589.803 95.2071C588.952 92.6167 587.891 90.1101 586.626 87.7004L594.741 77.806L587.538 68.568L575.974 74.0174C573.97 72.2156 571.789 70.5769 569.459 69.1055L571.534 56.4886L560.683 52.0877L553.384 62.5944C550.692 62.0217 547.983 61.6825 545.287 61.5768L540.784 49.6207L529.185 51.2419L528.123 63.9909C525.533 64.8411 523.018 65.9028 520.617 67.1715L510.718 59.0569L501.484 66.2552L506.929 77.8148C505.128 79.8281 503.489 82.0043 502.022 84.3391L489.401 82.2598L485.004 93.1145L495.511 100.405C494.947 103.101 494.595 105.815 494.493 108.507L482.537 113.013L484.154 124.613L496.907 125.674C497.758 128.265 498.81 130.771 500.079 133.177L491.969 143.075L499.172 152.318L510.731 146.864C512.736 148.666 514.921 150.305 517.251 151.776L515.172 164.393L526.031 168.794L533.326 158.287C536.018 158.86 538.723 159.199 541.419 159.305L545.925 171.256L557.525 169.64L558.586 156.891C561.172 156.04 563.688 154.979 566.093 153.71L575.987 161.825L585.23 154.626L579.776 143.067C581.578 141.058 583.221 138.877 584.688 136.542L597.314 138.622Z" fill="#FF5656"></path><path d="M705.478 158.904C679.073 148.203 666.337 118.119 677.033 91.7092C687.738 65.2993 717.822 52.5635 744.232 63.2684C770.642 73.969 783.369 104.053 772.673 130.463C761.968 156.873 731.884 169.6 705.478 158.904ZM817.18 159.309L824.708 140.732L806.73 128.247C807.699 123.639 808.281 119.005 808.466 114.392L828.92 106.683L826.149 86.8325L804.338 85.0131C802.884 80.5902 801.061 76.295 798.893 72.1716L812.779 55.2419L800.462 39.4356L780.677 48.7528C777.245 45.6779 773.514 42.8673 769.523 40.3607L773.082 18.7525L754.501 11.2326L742.025 29.2152C737.404 28.2372 732.778 27.6557 728.161 27.4751L720.456 7.01672L700.601 9.78327L698.782 31.6029C694.364 33.0566 690.064 34.8716 685.936 37.0391L669.011 23.1579L653.2 35.4796L662.517 55.2551C659.438 58.6957 656.641 62.427 654.125 66.4138L632.53 62.8631L624.997 81.4316L642.975 93.9163C642.002 98.5331 641.42 103.168 641.24 107.771L620.786 115.489L623.557 135.331L645.367 137.155C646.826 141.582 648.645 145.877 650.804 150.001L636.922 166.93L649.253 182.737L669.028 173.419C672.456 176.494 676.2 179.305 680.183 181.811L676.628 203.411L695.205 210.94L707.685 192.957C712.302 193.935 716.936 194.516 721.54 194.697L729.249 215.155L749.104 212.389L750.919 190.569C755.342 189.116 759.637 187.296 763.765 185.133L780.695 199.01L796.506 186.688L787.188 166.908C790.268 163.477 793.069 159.745 795.58 155.754L817.18 159.309Z" fill="#FF5656"></path><path d="M887.96 764.765L880.321 771.743C874.497 777.06 869.361 774.382 861.85 773.258L49.4754 657.09C38.7132 655.477 33.4973 644.345 33.3827 633.384L27.9818 78.6783C27.9157 72.1364 31.8805 46.0304 31.8805 46.0304C31.8805 46.0304 51.5723 31.9377 63.3302 26.5059C68.7003 24.0345 74.5858 23.1667 80.2599 23.9993L882.088 141.899C890.273 143.102 896.163 149.943 896.189 158.278L898 742.328C898.026 750.725 894.356 758.932 887.96 764.765Z" fill="#FF858F"></path><path d="M863.418 777.007L52.0835 657.711C39.4886 655.861 30.4401 645.345 30.4004 632.526L28.6119 56.0657C28.5898 49.2947 34.8146 43.8542 41.4666 44.8321L854.951 164.446C863.14 165.653 869.03 172.485 869.052 180.829L870.881 770.483C870.894 774.417 867.286 777.575 863.418 777.007Z" fill="#FF5656"></path><path d="M29.5723 367.752C28.678 367.752 27.9511 367.034 27.9511 366.131L26.9864 56.0745C26.9776 52.352 28.6251 48.7837 31.5106 46.2815C34.3697 43.8057 38.0878 42.6955 41.7002 43.2286L745.818 145.397C746.708 145.529 747.32 146.353 747.188 147.243C747.064 148.128 746.232 148.745 745.346 148.609L41.2332 46.4401C38.5592 46.0524 35.7838 46.8806 33.6384 48.7397C31.4666 50.6207 30.2243 53.2904 30.2331 56.0613L31.1979 366.126C31.1979 367.02 30.4754 367.752 29.5767 367.752C29.5767 367.752 29.5767 367.752 29.5723 367.752Z" fill="black"></path><path d="M864.325 778.699C863.942 778.699 863.563 778.668 863.184 778.611L816.21 771.655C815.32 771.522 814.713 770.69 814.845 769.804C814.977 768.923 815.805 768.311 816.686 768.443L863.665 775.404C865.021 775.602 866.427 775.17 867.519 774.227C868.634 773.267 869.268 771.906 869.268 770.492L867.44 180.825C867.418 176.327 865.488 172.146 862.145 169.336C861.449 168.767 861.361 167.741 861.933 167.058C862.506 166.362 863.537 166.274 864.224 166.855C868.308 170.274 870.66 175.362 870.678 180.82L872.51 770.474C872.515 772.84 871.475 775.1 869.651 776.681C868.136 777.989 866.242 778.699 864.325 778.699Z" fill="black"></path><path d="M684.861 544.441L313.989 486.449C304.919 485.035 298.443 477.418 298.443 468.167V131.886C298.443 119.388 309.998 109.41 322.249 111.326L693.13 169.309C702.192 170.728 708.672 178.353 708.672 187.6V523.877C708.672 536.375 697.112 546.357 684.861 544.441Z" fill="white"></path><path d="M337.822 455.748L327.285 453.854C322.65 453.026 318.95 448.338 318.959 443.312L319.06 388.444C319.069 383.298 322.959 379.761 327.703 380.584L338.148 382.408C342.783 383.219 346.505 387.902 346.505 392.941C346.505 406.937 346.505 433.678 346.505 447.885C346.505 453.057 342.589 456.598 337.822 455.748Z" fill="#630000"></path><path d="M375.162 461.585L364.611 459.691C359.981 458.858 356.28 454.18 356.289 449.153L356.399 359.637C356.404 354.492 360.298 350.954 365.042 351.778L375.479 353.597C380.118 354.408 383.84 359.086 383.84 364.122C383.84 384.382 383.84 433.144 383.84 453.726C383.84 458.898 379.919 462.44 375.162 461.585Z" fill="#630000"></path><path d="M412.493 467.422L401.946 465.532C397.316 464.695 393.616 460.017 393.625 454.991L393.726 383.933C393.735 378.787 397.629 375.25 402.374 376.078L412.81 377.897C417.453 378.703 421.171 383.391 421.171 388.426C421.171 405.492 421.171 442.224 421.171 459.559C421.171 464.731 417.255 468.277 412.493 467.422Z" fill="#630000"></path><path d="M449.828 473.255L439.273 471.37C434.647 470.537 430.947 465.854 430.951 460.836L431.07 321.046C431.075 315.897 434.964 312.35 439.713 313.179L450.145 315.002C454.788 315.813 458.507 320.496 458.507 325.531C458.507 353.329 458.507 437.145 458.507 465.4C458.507 470.568 454.59 474.114 449.828 473.255Z" fill="#630000"></path><path d="M487.159 479.092L476.608 477.202C471.982 476.374 468.277 471.691 468.286 466.673L468.401 290.888C468.405 285.738 472.299 282.191 477.048 283.02L487.48 284.839C492.123 285.65 495.846 290.328 495.846 295.363C495.846 327.839 495.846 438.189 495.846 471.229C495.846 476.4 491.925 479.951 487.159 479.092Z" fill="#630000"></path><path d="M524.489 484.934L513.934 483.039C509.313 482.215 505.612 477.533 505.617 472.515L505.736 269.958C505.74 264.812 509.63 261.266 514.375 262.094L524.806 263.914C529.454 264.724 533.172 269.403 533.172 274.438C533.172 310.126 533.172 440.757 533.172 477.07C533.172 482.242 529.256 485.793 524.489 484.934Z" fill="#FF5656"></path><path d="M561.824 490.771L551.278 488.876C546.648 488.048 542.947 483.37 542.947 478.343L543.066 334.465C543.071 329.311 546.965 325.773 551.714 326.602L562.15 328.417C566.789 329.227 570.511 333.914 570.511 338.945C570.511 367.302 570.511 454.092 570.511 482.912C570.511 488.083 566.591 491.621 561.824 490.771Z" fill="#630000"></path><path d="M599.16 496.608L588.609 494.713C583.979 493.885 580.283 489.207 580.283 484.189L580.406 293.249C580.406 288.099 584.3 284.557 589.049 285.39L599.481 287.209C604.12 288.015 607.842 292.703 607.842 297.738C607.842 332.064 607.842 453.845 607.842 488.749C607.842 493.92 603.926 497.458 599.16 496.608Z" fill="#630000"></path><path d="M636.495 502.44L625.939 500.551C621.314 499.722 617.613 495.044 617.618 490.022L617.741 241.742C617.745 236.587 621.635 233.046 626.389 233.874L636.816 235.693C641.459 236.504 645.177 241.187 645.177 246.222C645.177 286.993 645.177 453.114 645.177 494.586C645.177 499.758 641.261 503.295 636.495 502.44Z" fill="#630000"></path><path d="M674.336 508.361L663.777 506.467C659.151 505.639 655.455 500.96 655.455 495.943L655.578 209.133C655.583 203.979 659.477 200.433 664.222 201.261L674.654 203.08C679.292 203.895 683.01 208.574 683.01 213.605C683.01 258.319 683.01 455.004 683.01 500.502C683.01 505.67 679.094 509.216 674.336 508.361Z" fill="#FF5656"></path><path d="M567.604 710.628L419.021 687.011C414.29 686.266 410.448 681.61 410.448 676.627V529.758C410.448 524.771 414.29 521.339 419.021 522.097L567.604 545.705C572.335 546.458 576.172 551.106 576.172 556.093V702.962C576.172 707.949 572.335 711.381 567.604 710.628Z" fill="white"></path><path d="M449.938 679.425L435.087 677.068V571.023L449.938 573.384V679.425Z" fill="#FF5656"></path><path d="M449.938 679.425L435.087 677.068V608.653L449.938 611.01V679.425Z" fill="#630000"></path><path d="M477.784 683.852L462.934 681.495V591.085L477.784 593.45V683.852Z" fill="#FF5656"></path><path d="M477.784 683.852L462.934 681.495V629.693L477.784 632.054V683.852Z" fill="#630000"></path><path d="M503.775 688.469L488.925 686.112V604.014L503.775 606.371V688.469Z" fill="#FF5656"></path><path d="M503.775 688.469L488.925 686.112V647.993L503.775 650.354V688.469Z" fill="#630000"></path><path d="M530.458 693.689L515.608 691.328V585.287L530.458 587.644V693.689Z" fill="#FF5656"></path><path d="M530.458 693.689L515.608 691.328V602.878L530.458 605.239V693.689Z" fill="#630000"></path><path d="M557.379 697.478L542.524 695.116V596.402L557.379 598.767V697.478Z" fill="#FF5656"></path><path d="M557.379 697.478L542.524 695.116V630.125L557.379 632.481V697.478Z" fill="#630000"></path><path d="M566.661 700.456C566.578 700.456 566.49 700.447 566.406 700.434L422.488 677.566C419.528 677.094 417.224 674.314 417.241 671.235L417.805 545.925C417.805 545.031 418.536 544.309 419.426 544.309H419.431C420.329 544.313 421.056 545.044 421.052 545.943L420.488 671.248C420.479 672.715 421.629 674.143 422.995 674.359L566.917 697.227C567.798 697.372 568.401 698.2 568.265 699.086C568.137 699.883 567.446 700.456 566.661 700.456Z" fill="#FF858F"></path><path d="M479.251 550.674L434.625 543.586V535.273L479.251 542.37V550.674Z" fill="#FF5656"></path><path d="M479.414 563.406L434.788 556.313V548.009L479.414 555.097V563.406Z" fill="#FF5656"></path><path d="M261.711 453.854L58.154 418.391C53.2685 417.536 49.7002 413.316 49.7002 408.386V84.7444C49.7002 78.4272 55.4315 73.6474 61.6827 74.7399L265.24 110.198C270.13 111.053 273.694 115.269 273.694 120.203V443.849C273.694 450.158 267.967 454.942 261.711 453.854Z" fill="white"></path><path d="M250.539 217.975C257.35 268.165 222.609 308.764 172.952 308.659C123.291 308.557 77.5153 267.786 70.7046 217.596C63.8984 167.406 98.6344 126.811 148.296 126.912C197.957 127.022 243.733 167.794 250.539 217.975Z" fill="#630000"></path><path d="M162.256 218.147L220.12 293.685C242.2 277.469 254.438 249.632 250.147 217.975C247.425 197.913 238.469 179.353 225.53 164.296L162.256 218.147Z" fill="#FF5656"></path><path d="M167.776 129.141L162.256 218.147L225.539 164.322C210.495 146.811 190.072 134.044 167.776 129.141Z" fill="#FF858F"></path><path d="M188.023 217.843C190.098 233.138 179.512 245.508 164.38 245.477C149.248 245.447 135.3 233.023 133.226 217.733C131.151 202.437 141.737 190.063 156.869 190.098C172.001 190.129 185.949 202.547 188.023 217.843Z" fill="white"></path><path d="M249.055 368.897L72.2954 344.672V325.43L249.055 349.65V368.897Z" fill="#630000"></path><path d="M249.451 404.691L72.6919 380.47V361.223L249.451 385.448V404.691Z" fill="#630000"></path><path d="M273.693 221.045C272.795 221.045 272.072 220.323 272.072 219.424V120.203C272.072 116.058 269.081 112.52 264.962 111.802L61.4004 76.339C58.8849 75.9029 56.3166 76.5901 54.365 78.2333C52.4311 79.8589 51.3209 82.229 51.3209 84.7444V216.279C51.3209 217.178 50.5941 217.904 49.6998 217.904C48.8011 217.904 48.0742 217.178 48.0742 216.279V84.7444C48.0742 81.273 49.6073 77.991 52.2725 75.7443C54.9642 73.4888 58.4884 72.5372 61.9598 73.1452L265.517 108.608C271.196 109.595 275.319 114.472 275.319 120.203V219.424C275.319 220.323 274.588 221.045 273.693 221.045Z" fill="black"></path><path d="M835.188 626.058L606.164 589.543V566.027L835.188 602.538V626.058Z" fill="#630000"></path><path d="M836.259 663.786L607.234 627.274V603.754L836.259 640.27V663.786Z" fill="#630000"></path><path d="M836.611 702.914L607.591 666.403V642.887L836.611 679.398V702.914Z" fill="#630000"></path><path d="M836.611 739.333L607.591 702.821V679.297L836.611 715.813V739.333Z" fill="#630000"></path><path d="M834.008 222.847L748.743 210.829V188.825L834.008 200.843V222.847Z" fill="#630000"></path><path d="M842.664 284.24L733.632 268.879V246.874L842.664 262.24V284.24Z" fill="#630000"></path><path d="M843.012 319.945L733.989 304.579V282.575L843.012 297.941V319.945Z" fill="#630000"></path><path d="M843.364 392.069L734.341 376.703V354.699L843.364 370.065V392.069Z" fill="#630000"></path><path d="M843.012 428.056L733.984 412.691V390.69L843.012 406.056V428.056Z" fill="#630000"></path><path d="M842.312 463.612L733.289 448.25V425.202L842.312 440.563V463.612Z" fill="#630000"></path><path d="M478.339 722.086C478.26 722.086 478.18 722.081 478.101 722.064L368.703 705.835C367.814 705.707 367.201 704.879 367.333 703.993C367.466 703.108 368.294 702.504 369.175 702.623L478.577 718.852C479.467 718.984 480.079 719.817 479.947 720.703C479.824 721.504 479.132 722.086 478.339 722.086Z" fill="black"></path><path d="M335.752 225.089C340.694 197.97 366.712 179.869 393.858 184.662C421.012 189.446 439.008 215.31 434.065 242.433C429.123 269.548 403.109 287.645 375.959 282.861C348.814 278.068 330.809 252.204 335.752 225.089Z" fill="white"></path><path d="M385.148 185.516C362.144 185.516 341.611 202.006 337.351 225.38C335.033 238.072 337.813 250.874 345.157 261.433C352.5 271.98 363.54 279.024 376.236 281.262C402.461 285.883 427.686 268.341 432.466 242.143C434.774 229.451 432.004 216.653 424.655 206.098C417.307 195.543 406.272 188.499 393.576 186.261C390.748 185.763 387.928 185.516 385.148 185.516ZM384.664 285.249C381.695 285.249 378.695 284.989 375.673 284.46C362.122 282.068 350.333 274.548 342.487 263.284C334.641 252.015 331.685 238.35 334.152 224.803C339.249 196.847 366.166 178.129 394.14 183.063C407.695 185.455 419.479 192.975 427.321 204.239C435.167 215.508 438.127 229.182 435.66 242.728C431.118 267.658 409.206 285.249 384.664 285.249Z" fill="black"></path><path d="M415.321 214.548L397.964 220.926C397.069 221.257 396.827 222.415 397.528 223.072L399.58 224.984C400.096 225.468 400.127 226.279 399.647 226.799L390.32 236.825C389.836 237.345 389.025 237.372 388.501 236.891L376.571 225.79C376.052 225.305 375.241 225.336 374.756 225.856L353.963 248.085C353.483 248.605 353.514 249.416 354.034 249.9L358.391 253.953C358.91 254.438 359.725 254.411 360.206 253.892L375.193 237.909C375.682 237.389 376.492 237.358 377.012 237.843L388.942 248.94C389.457 249.42 390.263 249.389 390.757 248.869L405.871 232.618C406.36 232.098 407.171 232.068 407.691 232.552L409.898 234.614C410.607 235.275 411.757 234.953 412.012 234.024L416.995 216.094C417.277 215.089 416.303 214.182 415.321 214.548Z" fill="#FF858F"></path><path d="M336.496 671.773C336.434 671.773 336.373 671.773 336.315 671.773C317.721 671.72 298.588 660.526 279.447 638.495C266.028 623.058 257.491 607.79 257.134 607.146C254.288 602.027 256.134 595.565 261.257 592.719C266.376 589.873 272.835 591.719 275.68 596.838C284.002 611.759 311.117 650.482 336.373 650.556C336.417 650.556 336.452 650.556 336.492 650.556C344.505 650.556 350.699 648.081 355.426 642.997C366.747 630.821 367.571 606.49 366.937 598.142C366.488 592.3 370.866 587.203 376.704 586.763C382.541 586.318 387.646 590.688 388.091 596.529C388.215 598.133 390.858 636.045 370.968 657.442C362.131 666.949 350.531 671.773 336.496 671.773Z" fill="black"></path><path d="M410.986 595.336H348.157C342.298 595.336 337.549 590.582 337.549 584.723C337.549 578.864 342.298 574.115 348.157 574.115H410.986C416.849 574.115 421.598 578.864 421.598 584.723C421.598 590.582 416.849 595.336 410.986 595.336Z" fill="black"></path><path d="M327.231 449.365H324.637V386.629H327.231C343.575 386.629 356.831 399.875 356.831 416.21V419.779C356.831 436.123 343.575 449.365 327.231 449.365Z" fill="white"></path><path d="M326.262 447.744H327.232C342.65 447.744 355.205 435.202 355.205 419.783V416.21C355.205 400.796 342.65 388.254 327.232 388.254H326.262V447.744ZM327.232 450.991H324.637C323.743 450.991 323.016 450.264 323.016 449.365V386.629C323.016 385.734 323.743 385.007 324.637 385.007H327.232C344.448 385.007 358.452 399.008 358.452 416.21V419.783C358.452 436.99 344.448 450.991 327.232 450.991Z" fill="black"></path><path d="M38.784 449.365H41.3787V386.629H38.784C22.4402 386.629 9.18896 399.875 9.18896 416.21V419.779C9.18896 436.123 22.4402 449.365 38.784 449.365Z" fill="white"></path><path d="M38.7841 388.254C23.361 388.254 10.8102 400.796 10.8102 416.21V419.783C10.8102 435.202 23.361 447.744 38.7841 447.744H39.7532V388.254H38.7841ZM41.3788 450.991H38.7841C21.5724 450.991 7.56348 436.99 7.56348 419.783V416.21C7.56348 399.008 21.5724 385.007 38.7841 385.007H41.3788C42.2731 385.007 43 385.734 43 386.629V449.365C43 450.264 42.2731 450.991 41.3788 450.991Z" fill="black"></path><path d="M31.2373 415.409C31.2373 347.998 99.1851 278.262 183.005 278.262C266.826 278.262 334.778 347.998 334.778 415.409C334.778 482.819 266.826 522.383 183.005 522.383C99.1851 522.383 31.2373 482.819 31.2373 415.409Z" fill="white"></path><path d="M183.005 279.883C97.0707 279.883 32.8585 351.434 32.8585 415.409C32.8585 446.973 47.9821 473.748 76.5903 492.828C103.599 510.841 141.393 520.762 183.005 520.762C224.618 520.762 262.416 510.841 289.425 492.828C318.033 473.748 333.152 446.973 333.152 415.409C333.152 351.434 268.945 279.883 183.005 279.883ZM183.005 524.005C140.758 524.005 102.326 513.89 74.7885 495.524C45.2331 475.815 29.6118 448.109 29.6118 415.409C29.6118 381.915 45.9997 347.276 74.577 320.372C104.529 292.169 143.036 276.636 183.005 276.636C222.975 276.636 261.486 292.169 291.438 320.372C320.016 347.276 336.399 381.915 336.399 415.409C336.399 448.109 320.778 475.815 291.227 495.524C263.689 513.89 225.253 524.005 183.005 524.005Z" fill="black"></path><path d="M221.024 542.639H144.992C111.666 542.639 84.6523 569.653 84.6523 602.975C84.6523 624.992 86.8021 646.957 91.0665 668.561L101.996 723.919C109.635 762.611 143.569 790.501 183.006 790.501C222.447 790.501 256.377 762.611 264.02 723.919L274.949 668.561C279.214 646.957 281.364 624.992 281.364 602.975C281.364 569.653 254.35 542.639 221.024 542.639Z" fill="white"></path><path d="M144.992 544.26C112.617 544.26 86.2775 570.6 86.2775 602.975C86.2775 624.838 88.4229 646.799 92.6564 668.24L103.59 723.606C111.057 761.426 144.454 788.875 183.005 788.875C221.561 788.875 254.958 761.426 262.425 723.606L273.354 668.24C277.592 646.799 279.738 624.838 279.738 602.975C279.738 570.6 253.398 544.26 221.023 544.26H144.992ZM183.005 792.122C142.908 792.122 108.172 763.571 100.401 724.231L89.4714 668.874C85.1938 647.217 83.0264 625.05 83.0264 602.975C83.0264 568.811 110.824 541.014 144.992 541.014H221.023C255.187 541.014 282.984 568.811 282.984 602.975C282.984 625.05 280.817 647.217 276.539 668.874L265.61 724.231C257.843 763.571 223.103 792.122 183.005 792.122Z" fill="black"></path><path d="M185.345 676.328H180.67C159.102 676.328 141.622 658.852 141.622 637.296V542.639H224.393V637.296C224.393 658.852 206.909 676.328 185.345 676.328Z" fill="#FF858F"></path><path d="M224.393 544.26H141.622C140.723 544.26 139.996 543.533 139.996 542.639C139.996 541.74 140.723 541.014 141.622 541.014H224.393C225.292 541.014 226.015 541.74 226.015 542.639C226.015 543.533 225.292 544.26 224.393 544.26Z" fill="black"></path><path d="M285.046 395.175H138.895C123.71 395.175 111.401 408.435 111.401 424.801V444.127C111.401 456.603 118.062 469.823 129.547 471.986C170.05 479.594 253.887 479.594 294.39 471.986C305.875 469.823 312.536 456.603 312.536 444.127V424.801C312.536 408.435 300.227 395.175 285.046 395.175Z" fill="black"></path><path d="M177.626 434.07C177.626 439.554 173.503 443.995 168.419 443.995C163.331 443.995 159.208 439.554 159.208 434.07C159.208 428.585 163.331 424.149 168.419 424.149C173.503 424.149 177.626 428.585 177.626 434.07Z" fill="#FF858F"></path><path d="M275.619 434.07C275.619 439.554 271.496 443.995 266.407 443.995C261.319 443.995 257.196 439.554 257.196 434.07C257.196 428.585 261.319 424.149 266.407 424.149C271.496 424.149 275.619 428.585 275.619 434.07Z" fill="#FF858F"></path><path d="M85.9295 720.002C65.1452 720.002 37.0215 717.042 18.9949 703.218C8.60712 695.253 2.53658 684.733 0.955062 671.962C-6.13752 614.6 63.0791 581.772 66.0262 580.402C71.3435 577.935 77.6519 580.243 80.1189 585.556C82.5815 590.864 80.2819 597.168 74.9779 599.64C74.392 599.913 16.8187 627.358 22.0126 669.354C22.8804 676.372 26.1139 681.94 31.9025 686.381C51.7265 701.575 94.9472 699.438 109.925 697.337C115.727 696.522 121.093 700.561 121.908 706.363C122.723 712.17 118.679 717.535 112.877 718.35C111.815 718.496 100.731 720.002 85.9295 720.002Z" fill="black"></path><path d="M159.19 731.284H138.816C127.683 731.284 118.45 722.932 117.344 711.852L116.635 704.76C116.031 698.711 118.023 692.649 122.106 688.138C126.19 683.627 132.023 681.037 138.106 681.037H170.605C176.464 681.037 181.213 685.795 181.213 691.649C181.213 697.509 176.464 702.257 170.605 702.257H138.106C138.045 702.257 137.948 702.257 137.838 702.376C137.732 702.491 137.745 702.592 137.75 702.654L138.459 709.742C138.477 709.927 138.631 710.064 138.816 710.064H159.19C165.049 710.064 169.798 714.817 169.798 720.672C169.798 726.535 165.049 731.284 159.19 731.284Z" fill="black"></path><path d="M687.592 551.859V594.181C687.592 635.574 654.918 669.129 614.596 669.129C574.278 669.129 541.595 702.685 541.595 744.073C541.595 747.765 544.586 750.756 548.278 750.756H741.509C801.955 750.756 850.942 700.451 850.942 638.402V548.097C850.942 523.414 831.453 503.405 807.417 503.405H734.795C708.725 503.405 687.592 525.097 687.592 551.859Z" fill="#FF858F"></path><path d="M734.791 505.031C709.663 505.031 689.222 526.04 689.222 551.859V594.181C689.222 636.402 655.746 670.751 614.6 670.751C575.234 670.751 543.225 703.645 543.225 744.073C543.225 746.862 545.49 749.135 548.274 749.135H741.509C800.955 749.135 849.317 699.456 849.317 638.402V548.097C849.317 524.348 830.523 505.031 807.417 505.031H734.791ZM741.509 752.377H548.274C543.697 752.377 539.979 748.65 539.979 744.073C539.979 701.857 573.446 667.508 614.6 667.508C653.958 667.508 685.976 634.614 685.976 594.181V551.859C685.976 524.247 707.875 501.784 734.791 501.784H807.417C832.312 501.784 852.568 522.555 852.568 548.097V638.402C852.568 701.249 802.748 752.377 741.509 752.377Z" fill="black"></path><path d="M709.896 878.369H692.381V674.477H709.896V878.369Z" fill="#FF858F"></path><path d="M619.063 884.982L696.557 878.18H703.667L782.783 884.982V890.383H619.063V884.982Z" fill="#FF858F"></path><path d="M648.363 849.404C646.566 847.589 636.182 815.285 636.182 815.285L615.667 829.928L638.156 860.162L648.363 849.404Z" fill="white"></path><path d="M617.953 830.285L638.305 857.642L646.372 849.149C643.887 844.03 638.345 827.276 635.31 817.902L617.953 830.285ZM638.156 861.783C638.12 861.783 638.094 861.783 638.059 861.779C637.583 861.748 637.138 861.515 636.847 861.127L614.358 830.893C614.098 830.545 613.988 830.105 614.058 829.677C614.12 829.246 614.362 828.858 614.715 828.607L635.23 813.968C635.653 813.664 636.195 813.585 636.689 813.748C637.178 813.911 637.57 814.298 637.724 814.792C642.561 829.836 648.358 846.699 649.57 848.329C650.187 848.951 650.138 849.889 649.535 850.523L639.332 861.281C639.028 861.603 638.596 861.783 638.156 861.783Z" fill="black"></path><path d="M611.385 890.251L625.028 890.171C634.054 890.114 642.447 885.528 647.372 877.96L660.865 856.598C664.597 850.695 662.513 842.871 656.345 839.598C650.715 836.602 644.817 833.691 643.429 833.823C640.618 834.087 639.486 847.369 639.486 847.369L627.332 847.836C627.332 847.836 621.327 872.805 616.041 875.651C612.195 877.717 609.508 880.753 607.702 883.528C605.803 886.427 607.918 890.273 611.385 890.251Z" fill="black"></path><path d="M612.754 886.546C611.961 886.546 611.27 885.969 611.146 885.167C611.014 884.277 611.622 883.449 612.508 883.317L631.173 880.506C634.9 879.947 638.138 877.775 640.072 874.546L656.561 846.99C657.024 846.224 658.024 845.973 658.786 846.431C659.557 846.893 659.808 847.889 659.35 848.656L642.856 876.211C640.424 880.273 636.345 883.008 631.662 883.713L612.992 886.528C612.913 886.537 612.829 886.546 612.754 886.546Z" fill="white"></path><path d="M635.794 865.823C635.653 865.823 635.503 865.805 635.362 865.77L624.966 862.933C624.098 862.7 623.591 861.805 623.825 860.942C624.063 860.079 624.957 859.563 625.821 859.801L636.217 862.638C637.085 862.871 637.596 863.766 637.358 864.629C637.164 865.347 636.508 865.823 635.794 865.823Z" fill="white"></path><path d="M630.376 871.167C630.248 871.167 630.12 871.149 629.988 871.118L623.015 869.409C622.147 869.202 621.614 868.325 621.825 867.449C622.041 866.576 622.913 866.048 623.79 866.259L630.759 867.964C631.631 868.176 632.169 869.057 631.949 869.924C631.768 870.669 631.107 871.167 630.376 871.167Z" fill="white"></path><path d="M578.349 843.241L554.525 867.18L541.895 862.541L563.855 831.92L578.349 843.241Z" fill="white"></path><path d="M544.454 861.752L554.106 865.299L575.903 843.4L564.19 834.241L544.454 861.752ZM554.524 868.805C554.331 868.805 554.146 868.77 553.965 868.704L541.33 864.061C540.855 863.893 540.493 863.506 540.344 863.021C540.194 862.532 540.278 862.008 540.577 861.598L562.538 830.972C562.789 830.616 563.185 830.373 563.626 830.312C564.049 830.25 564.502 830.369 564.855 830.638L579.348 841.968C579.71 842.25 579.934 842.677 579.965 843.144C579.996 843.602 579.82 844.061 579.494 844.387L555.674 868.325C555.361 868.638 554.943 868.805 554.524 868.805Z" fill="black"></path><path d="M562.053 863.435C562.053 863.435 563.199 873.616 561.247 882.616C560.208 887.409 555.886 890.784 550.978 890.784H492.515C488.335 890.784 486.436 885.568 489.643 882.885C500.035 874.176 519.163 860.876 542.674 856.973L549.234 866.153L562.053 863.435Z" fill="black"></path><path d="M555.886 884.365H495.295C494.396 884.365 493.665 883.643 493.665 882.744C493.665 881.845 494.396 881.123 495.295 881.123H555.886C556.78 881.123 557.512 881.845 557.512 882.744C557.512 883.643 556.78 884.365 555.886 884.365Z" fill="white"></path><path d="M529.102 873.607C528.463 873.607 527.855 873.224 527.604 872.603L524.392 864.819C524.049 863.99 524.445 863.043 525.278 862.7C526.106 862.356 527.053 862.757 527.397 863.581L530.599 871.361C530.947 872.189 530.547 873.14 529.718 873.484C529.52 873.568 529.309 873.607 529.102 873.607Z" fill="white"></path><path d="M518.551 875.651C517.872 875.651 517.238 875.22 517.013 874.537L514.696 867.519C514.41 866.664 514.877 865.748 515.723 865.466C516.582 865.18 517.494 865.647 517.78 866.497L520.097 873.519C520.379 874.365 519.917 875.29 519.066 875.568C518.899 875.625 518.727 875.651 518.551 875.651Z" fill="white"></path><path d="M704.447 675.751C704.447 675.751 595.574 663.076 563.195 691.103C530.82 719.126 614.305 839.642 614.305 839.642L640.702 820.06L615.667 734.883L716.306 706.306L704.447 675.751Z" fill="black"></path><path d="M764.359 731.222C748.544 736.24 720.249 742.729 680.702 742.192C669.464 742.037 659.089 748.245 653.979 758.258C642.27 781.232 616.913 822.593 575.613 849.404L555.886 838.783L606.23 725.447C610.829 715.099 619.424 707.055 630.054 703.16L729.839 666.57C729.839 666.57 760.778 657.922 775.945 685.544C778.65 690.473 783.681 681.654 784.884 685.636C788.985 699.284 777.941 726.905 764.359 731.222Z" fill="black"></path><path d="M583.481 778.285C583.261 778.285 583.036 778.241 582.825 778.144C582.001 777.778 581.635 776.818 581.997 776.003L604.75 724.791C609.499 714.099 618.517 705.658 629.495 701.632L677.275 684.112C678.121 683.804 679.064 684.231 679.359 685.077C679.672 685.918 679.244 686.852 678.403 687.16L630.614 704.685C620.455 708.407 612.111 716.214 607.719 726.104L584.966 777.32C584.697 777.923 584.107 778.285 583.481 778.285Z" fill="white"></path><path d="M610.045 822.312C609.64 822.312 609.23 822.162 608.917 821.858C608.27 821.237 608.248 820.21 608.873 819.563C613.397 814.853 617.856 809.792 622.116 804.523C622.684 803.827 623.702 803.721 624.402 804.285C625.098 804.849 625.208 805.871 624.644 806.567C620.323 811.906 615.807 817.038 611.212 821.814C610.891 822.144 610.468 822.312 610.045 822.312Z" fill="white"></path><path d="M623.38 807.17C623.019 807.17 622.662 807.051 622.358 806.809C621.662 806.245 621.557 805.223 622.116 804.523C624.222 801.933 626.305 799.241 628.323 796.536C628.856 795.813 629.878 795.668 630.596 796.201C631.314 796.734 631.464 797.752 630.931 798.47C628.887 801.21 626.772 803.937 624.645 806.567C624.323 806.963 623.852 807.17 623.38 807.17Z" fill="white"></path><path d="M679.702 587.816C679.702 587.816 670.129 674.764 605.829 680.455L679.702 681.504C679.702 681.504 707.055 626.072 708.169 604.49C709.28 582.908 679.702 587.816 679.702 587.816Z" fill="white"></path><path d="M620.988 679.046L678.703 679.865C682.244 672.561 705.549 623.909 706.549 604.406C706.791 599.732 705.469 596.076 702.628 593.543C696.496 588.054 684.883 588.838 681.156 589.261C680.456 594.27 677.346 613.331 668.354 632.684C657.138 656.817 640.944 672.592 620.988 679.046ZM679.707 683.125C679.698 683.125 679.694 683.125 679.689 683.125L605.803 682.077C604.944 682.068 604.235 681.381 604.208 680.513C604.173 679.649 604.825 678.914 605.689 678.839C631.733 676.53 651.826 660.543 665.412 631.318C675.61 609.362 678.068 587.847 678.09 587.635C678.17 586.913 678.725 586.331 679.443 586.212C680.125 586.098 696.284 583.521 704.795 591.12C708.403 594.34 710.086 598.869 709.791 604.574C708.676 626.244 682.289 679.945 681.165 682.222C680.888 682.777 680.328 683.125 679.707 683.125Z" fill="black"></path><path d="M771.215 532.555C758.752 529.621 753.54 529.582 708.196 531.229C697.117 531.626 683.936 545.533 682.632 556.551C686.148 567.111 702.408 619.27 674.024 660.015C670.002 665.799 664.526 672.143 657.011 678.222C661.235 681.636 667.795 686.077 676.61 688.698C691.236 693.037 698.593 688.345 710.381 688.698C741.567 689.627 753.007 724.359 773.144 719.998C778.527 718.83 785.655 714.632 792.338 700.566C796.127 688.896 799.497 675.195 801.373 659.706C806.462 617.732 798.136 582.776 790.704 560.842C788.488 553.917 785.924 536.013 771.215 532.555Z" fill="white"></path><path d="M709.104 687.055C709.54 687.055 709.985 687.059 710.43 687.072C727.337 687.579 738.461 697.509 748.272 706.271C756.717 713.808 764.012 720.315 772.8 718.412C779.633 716.932 785.69 710.729 790.818 699.967C795.096 686.768 798.109 673.165 799.766 659.513C803.721 626.821 800.158 593.798 789.157 561.366C788.831 560.34 788.514 559.168 788.153 557.815C786.069 549.987 782.567 536.89 770.844 534.137C758.725 531.287 754.047 531.19 708.258 532.846C698.421 533.203 685.8 545.666 684.284 556.388C690.566 575.388 701.927 622.803 675.363 660.944C670.954 667.275 665.658 673.063 659.601 678.187C665.037 682.297 670.905 685.31 677.068 687.143C686.082 689.817 692.152 688.94 698.584 688.019C701.875 687.544 705.262 687.055 709.104 687.055ZM769.695 721.998C761.016 721.998 753.752 715.509 746.104 708.689C736.716 700.297 726.055 690.79 710.328 690.319C706.227 690.196 702.571 690.72 699.046 691.231C692.557 692.169 685.839 693.134 676.143 690.249C668.971 688.121 662.191 684.5 655.993 679.482L654.434 678.222L655.993 676.962C662.465 671.724 668.09 665.706 672.698 659.09C698.588 621.917 687.192 575.358 681.086 557.067L680.976 556.723L681.015 556.357C682.355 545.053 695.747 530.053 708.139 529.608C754.338 527.934 759.073 528.035 771.593 530.974C785.197 534.172 789.016 548.45 791.29 556.974C791.646 558.287 791.95 559.428 792.246 560.353C803.391 593.217 807.003 626.724 802.986 659.905C801.299 673.795 798.241 687.641 793.88 701.068L793.801 701.262C788.206 713.037 781.369 719.874 773.492 721.588C772.193 721.866 770.924 721.998 769.695 721.998Z" fill="black"></path><path d="M671.257 597.56C671.257 597.56 678.583 538.767 699.72 533.745C692.284 556.591 689.813 581.454 690.887 607.767C690.936 608.86 689.738 609.552 688.826 608.957L671.257 597.56Z" fill="white"></path><path d="M672.997 596.759L689.244 607.301C688.191 580.675 690.79 557.445 697.169 536.432C680.922 544.974 674.024 589.481 672.997 596.759ZM689.548 610.798C688.984 610.798 688.429 610.64 687.94 610.318L669.517 598.367L669.64 597.362C669.94 594.913 677.367 537.384 699.341 532.163L702.156 531.498L701.258 534.247C694.227 555.859 691.368 579.886 692.513 607.701C692.553 608.82 691.98 609.86 691.006 610.411C690.557 610.671 690.05 610.798 689.548 610.798Z" fill="black"></path><path d="M527.868 591.86H604.596C607.825 591.86 610.834 593.472 612.552 596.124L641.341 680.852H709.249V682.121C709.249 686.13 706.007 689.372 702.002 689.372H557.877C553.877 689.372 550.639 686.13 550.639 682.121V681.011L524.621 601.785C524.225 600.582 523.736 599.411 523.282 598.226C522.15 595.239 524.392 591.86 527.868 591.86Z" fill="#630000"></path><path d="M527.868 593.481C526.762 593.481 525.767 593.992 525.163 594.873C524.582 595.715 524.45 596.723 524.802 597.644L525.177 598.626C525.511 599.486 525.859 600.367 526.163 601.278L552.177 680.5C552.23 680.667 552.256 680.834 552.256 681.006L552.26 682.121C552.26 685.226 554.78 687.751 557.877 687.751H702.002C704.985 687.751 707.429 685.416 707.615 682.478H641.341C640.645 682.478 640.028 682.033 639.799 681.376L611.089 596.851C609.64 594.737 607.226 593.481 604.596 593.481H527.868ZM702.002 690.997H557.877C552.992 690.997 549.018 687.015 549.018 682.121V681.27L523.075 602.292C522.806 601.463 522.489 600.657 522.154 599.807L521.767 598.798C521.044 596.895 521.313 594.737 522.489 593.032C523.714 591.256 525.679 590.239 527.868 590.239H604.596C608.393 590.239 611.882 592.111 613.918 595.243C613.988 595.353 614.05 595.481 614.094 595.604L642.504 679.231H709.244C710.148 679.231 710.87 679.958 710.87 680.852V682.121C710.87 687.015 706.892 690.997 702.002 690.997Z" fill="black"></path><path d="M584.318 635.288C585.398 638.878 583.746 642.552 580.627 643.49C577.503 644.433 574.102 642.288 573.014 638.697C571.939 635.111 573.587 631.437 576.71 630.495C579.834 629.552 583.235 631.702 584.318 635.288Z" fill="white"></path><path d="M625.6 682.632H575.6C574.701 682.632 573.979 681.905 573.979 681.011C573.979 680.112 574.701 679.385 575.6 679.385H625.6C626.494 679.385 627.221 680.112 627.221 681.011C627.221 681.905 626.494 682.632 625.6 682.632Z" fill="white"></path><path d="M561.212 682.632H554.15C553.251 682.632 552.529 681.905 552.529 681.011C552.529 680.112 553.251 679.385 554.15 679.385H561.212C562.11 679.385 562.833 680.112 562.833 681.011C562.833 681.905 562.11 682.632 561.212 682.632Z" fill="white"></path><path d="M664.636 673.416C669.024 666.544 677.09 663.063 681.521 663.314C701.68 664.451 740.549 644.054 769.461 634.195C774.465 626.913 770.822 610.983 773.1 591.869L809.972 595.054C813.646 613.279 812.245 644.208 809.056 648.31C806.95 653.328 795.479 667.905 772.188 679.262C735.773 697.015 687.028 685.412 687.028 685.412C687.028 685.412 662.323 698.473 651.649 684.275C651.649 684.275 660.239 680.288 664.636 673.416Z" fill="white"></path><path d="M654.208 684.768C664.548 695.262 686.041 684.099 686.266 683.98C686.618 683.79 687.019 683.746 687.398 683.834C687.878 683.949 736.015 695.09 771.478 677.803C793.734 666.949 805.399 652.825 807.558 647.684C807.615 647.552 807.686 647.429 807.778 647.314C810.276 644.103 812.117 615.534 808.602 596.565L774.535 593.626C773.795 600.754 773.848 607.42 773.897 613.353C773.976 622.873 774.042 630.398 770.791 635.12C770.593 635.407 770.306 635.627 769.98 635.737C760.839 638.852 750.46 643.125 740.425 647.257C718.363 656.341 695.566 665.733 681.429 664.931C677.627 664.711 670.116 667.847 665.997 674.288C662.644 679.539 657.103 683.143 654.208 684.768ZM666.446 692.557C660.481 692.557 654.508 690.782 650.354 685.253C650.058 684.861 649.957 684.363 650.076 683.887C650.199 683.411 650.521 683.015 650.966 682.808C651.045 682.768 659.186 678.922 663.266 672.544C667.785 665.455 676.27 661.394 681.614 661.693C694.993 662.447 717.464 653.2 739.187 644.257C749.073 640.182 759.293 635.979 768.394 632.847C770.778 628.887 770.725 622.006 770.654 613.38C770.597 606.922 770.54 599.604 771.483 591.679C771.593 590.807 772.372 590.19 773.236 590.252L810.104 593.437C810.827 593.503 811.413 594.023 811.558 594.732C815.175 612.657 813.972 643.834 810.479 649.112C808.435 653.702 797.531 668.711 772.901 680.724C738.557 697.464 692.958 688.367 687.239 687.121C684.883 688.293 675.675 692.557 666.446 692.557Z" fill="black"></path><path d="M655.993 686.53C655.746 686.53 655.596 686.513 655.565 686.513C654.667 686.42 654.019 685.627 654.107 684.733C654.204 683.847 654.979 683.204 655.874 683.284C656.023 683.297 662.164 683.57 671.817 674.808C672.477 674.204 673.508 674.257 674.112 674.918C674.715 675.583 674.662 676.61 674.006 677.213C664.429 685.9 657.724 686.53 655.993 686.53Z" fill="black"></path><path d="M662.416 689.865C661.935 689.865 661.654 689.826 661.609 689.817C660.72 689.68 660.12 688.848 660.253 687.967C660.394 687.081 661.222 686.486 662.094 686.61C662.231 686.627 667.596 687.134 676.041 679.799C676.715 679.209 677.742 679.284 678.332 679.953C678.918 680.632 678.848 681.654 678.169 682.244C670.226 689.152 664.46 689.865 662.416 689.865Z" fill="black"></path><path d="M814.58 608.287C814.827 608.314 815.038 608.111 815.02 607.869C814.761 603.688 812.774 572.494 809.963 559.908C803.619 531.52 764.447 531.48 764.447 531.48C771.654 555.807 773.989 579.133 771.698 601.508C771.562 602.886 772.553 604.115 773.923 604.256L814.58 608.287Z" fill="white"></path><path d="M766.632 533.203C773.311 556.652 775.557 579.675 773.311 601.679C773.284 601.913 773.359 602.151 773.505 602.331C773.654 602.508 773.857 602.618 774.077 602.64L813.302 606.53C812.84 599.287 810.946 571.741 808.377 560.269C803.236 537.273 774.8 533.745 766.632 533.203ZM814.73 606.675H814.734C814.734 606.675 814.734 606.675 814.73 606.675ZM814.62 609.913C814.549 609.913 814.487 609.913 814.417 609.904L773.76 605.869C772.672 605.763 771.69 605.239 770.994 604.389C770.298 603.53 769.972 602.455 770.082 601.349C772.35 579.084 769.936 555.736 762.888 531.943L762.267 529.855L764.443 529.859C764.853 529.859 804.99 530.242 811.545 559.56C814.395 572.318 816.417 604.177 816.633 607.772C816.677 608.358 816.452 608.931 816.025 609.345C815.646 609.71 815.139 609.913 814.62 609.913Z" fill="black"></path><path d="M745.108 524.612L736.007 495L717.077 505.07L722.535 523.767C723.306 526.485 722.143 529.379 719.707 530.815L717.518 532.115C716.385 532.78 716.707 534.502 718.007 534.705L728.002 536.331C737.584 537.877 747.403 536.234 755.963 531.652C757.192 530.996 756.989 529.176 755.641 528.815C751.531 527.709 745.514 525.881 745.108 524.612Z" fill="white"></path><path d="M718.857 533.203L728.258 534.727C737.364 536.198 746.848 534.639 755.003 530.326C744.298 527.423 743.848 526.031 743.562 525.11C743.553 525.106 743.553 525.101 743.553 525.097L735.029 497.357L718.998 505.89L724.09 523.313C725.064 526.753 723.597 530.405 720.535 532.212L718.857 533.203ZM735.007 538.511C732.575 538.511 730.143 538.322 727.738 537.934L717.747 536.309C716.469 536.106 715.491 535.154 715.253 533.886C715.015 532.621 715.575 531.375 716.685 530.718L718.883 529.419C720.676 528.361 721.54 526.216 720.971 524.212L715.513 505.529C715.297 504.793 715.632 504.004 716.311 503.643L735.24 493.568C735.668 493.343 736.174 493.313 736.628 493.502C737.073 493.687 737.412 494.066 737.557 494.524L746.584 523.903C747.201 524.392 749.756 525.551 756.06 527.256C757.32 527.59 758.223 528.648 758.373 529.938C758.527 531.238 757.879 532.472 756.725 533.084C750.055 536.661 742.544 538.511 735.007 538.511Z" fill="black"></path><path d="M693.262 474.973C698.139 472.378 694.187 480.427 710.231 466.488C716.623 460.933 716.813 471.255 718.474 469.823C724.61 464.515 726.315 463.14 730.174 462.462C732.738 462.004 739.624 464.286 740.276 467.722C742.386 478.916 736.707 478.317 737.668 488.489C738.346 495.634 737.469 498.304 735.412 500.343C733.324 502.401 729.954 499.903 727.513 501.982C724.35 504.678 727.923 510.621 725.579 514.855C724.099 517.524 719.271 520.674 709.134 520.463C707.487 520.432 706.095 519.225 705.844 517.59C705.509 515.498 705.09 512.859 704.914 510.299C704.051 498.106 706.685 494.039 704.117 491.96C700.178 488.784 693.438 494.757 690.601 491.96C687.654 489.057 686.592 478.533 693.262 474.973Z" fill="black"></path><path d="M718.892 484.832L718.681 488.163C718.575 489.74 718.584 491.308 718.694 492.881C718.91 495.819 719.086 500.885 719.218 503.736C719.637 512.89 706.275 508.78 706.275 508.78L704.645 506.96L703.125 507.035C702.839 507.044 702.535 506.996 702.275 506.859C701.623 506.524 701.306 505.824 701.42 505.145C702.05 501.449 703.147 493.277 701.989 486.934C701.989 486.934 709.187 481.07 718.892 484.832Z" fill="white"></path><path d="M707.169 507.357C709.341 507.943 714.218 508.784 716.425 507.07C717.279 506.401 717.663 505.339 717.597 503.81C717.553 503.013 717.513 502.039 717.473 500.982C717.363 498.357 717.227 495.092 717.077 493C716.953 491.365 716.945 489.705 717.05 488.061L717.187 485.956C710.654 483.903 705.592 486.493 703.755 487.674C704.654 493.942 703.698 501.401 703.019 505.418L704.566 505.343C705.077 505.317 705.526 505.515 705.852 505.881L707.169 507.357ZM712.315 511.335C709.191 511.335 706.301 510.489 705.795 510.335C705.508 510.247 705.257 510.084 705.059 509.868L703.944 508.621L703.204 508.652C702.596 508.678 702.015 508.555 701.526 508.299C700.27 507.643 699.583 506.273 699.817 504.881C700.363 501.634 701.517 493.423 700.389 487.233C700.284 486.647 700.499 486.053 700.962 485.682C701.284 485.414 709.006 479.264 719.473 483.326C720.138 483.581 720.553 484.233 720.504 484.938L720.293 488.273C720.2 489.771 720.2 491.277 720.31 492.757C720.464 494.907 720.61 498.202 720.711 500.846C720.76 501.894 720.799 502.863 720.834 503.665C720.989 506.929 719.601 508.714 718.412 509.634C716.733 510.938 714.464 511.335 712.315 511.335Z" fill="black"></path><path d="M721.112 495.097C721.112 495.097 721.619 487.088 725.196 488.083C728.773 489.083 727.998 497.894 721.112 495.097Z" fill="white"></path><path d="M705.817 495.035C705.821 495.053 705.504 495.026 705.165 495.405C705.095 495.484 704.993 495.987 705.473 497.229C706.429 499.683 707.262 500.141 707.5 500.229C707.575 500.251 707.733 500.308 708.046 500.181C708.24 499.529 708.13 497.286 705.817 495.035ZM707.685 503.507C707.253 503.507 706.83 503.432 706.412 503.286C704.799 502.718 703.504 501.119 702.451 498.396C702.13 497.559 701.139 495.017 702.755 493.224C703.535 492.361 704.566 491.863 705.663 491.824C706.601 491.788 707.482 492.119 708.09 492.713C710.839 495.388 711.557 498.41 711.31 500.339C711.161 501.537 710.645 502.445 709.865 502.89C709.152 503.299 708.416 503.507 707.685 503.507Z" fill="black"></path><path d="M705.262 495.084C704.57 495.084 703.931 494.643 703.716 493.956C703.447 493.092 703.914 492.185 704.773 491.912L721.328 486.683C722.183 486.418 723.095 486.89 723.363 487.744C723.636 488.594 723.161 489.506 722.306 489.779L705.746 495.013C705.592 495.061 705.429 495.084 705.262 495.084Z" fill="black"></path><path d="M701.187 504.775H701.183C700.896 504.775 700.029 504.771 698.68 503.286C698.059 502.59 696.028 500.079 696.337 496.938C696.438 495.898 696.932 495.031 697.747 494.462C699.451 493.242 701.993 493.78 702.487 493.898C703.359 494.11 703.892 494.987 703.681 495.854C703.469 496.727 702.597 497.264 701.725 497.053C700.83 496.841 699.773 496.916 699.601 497.119C699.601 497.119 699.579 497.154 699.57 497.26C699.377 499.22 701.029 501.18 701.592 501.586C702.302 501.762 702.817 502.396 702.813 503.158C702.804 504.057 702.081 504.775 701.187 504.775Z" fill="black"></path><path d="M698.579 896.202L741.214 719.28L783.844 896.202H794.065L747.219 700.381L735.205 700.359L688.359 896.202H698.579Z" fill="white"></path><path d="M785.117 894.581H791.994L745.936 701.997L736.487 701.989L690.416 894.581H697.293L741.205 712.35L785.117 894.581ZM796.117 897.828H782.558L741.205 726.214L699.856 897.828H686.301L733.923 698.742L748.496 698.76L748.795 700.002L796.117 897.828Z" fill="black"></path><path d="M456.418 895.594L499.049 718.672L541.679 895.594H551.899L505.057 699.773L493.04 699.755L446.198 895.594H456.418Z" fill="white"></path><path d="M542.956 893.973H549.837L503.775 701.394L494.326 701.381L448.25 893.973H455.136L499.048 711.742L542.956 893.973ZM553.952 897.215H540.401L499.048 725.601L457.691 897.215H444.136L491.757 698.13L506.339 698.152L506.639 699.394L553.952 897.215Z" fill="black"></path><path d="M786.998 703.777H450.73V687.781H786.998V703.777Z" fill="white"></path><path d="M452.361 702.156H785.373V689.403H452.361V702.156ZM788.62 705.398H449.11V686.156H788.62V705.398Z" fill="black"></path><path d="M685.178 701.645C684.284 701.645 683.557 700.914 683.557 700.024V691.112C683.557 690.218 684.284 689.491 685.178 689.491C686.077 689.491 686.799 690.218 686.799 691.112V700.024C686.799 700.914 686.077 701.645 685.178 701.645Z" fill="#FF858F"></path><path d="M461.995 29.2813C461.392 29.2813 460.81 28.9509 460.533 28.3782C460.14 27.5676 460.471 26.5985 461.277 26.202L468.815 22.5191C469.621 22.1226 470.594 22.453 470.986 23.2636C471.383 24.0654 471.052 25.0346 470.242 25.431L462.704 29.1139C462.471 29.2328 462.229 29.2813 461.995 29.2813Z" fill="black"></path><path d="M444.431 37.8761C443.828 37.8761 443.251 37.5413 442.969 36.9642C442.577 36.158 442.907 35.1889 443.713 34.788L451.255 31.1051C452.061 30.713 453.03 31.039 453.427 31.8496C453.819 32.6514 453.489 33.625 452.682 34.017L445.14 37.7043C444.911 37.8188 444.669 37.8761 444.431 37.8761Z" fill="black"></path><path d="M454.528 26.7306C453.925 26.7306 453.348 26.3958 453.066 25.8187L449.378 18.2768C448.986 17.475 449.321 16.497 450.123 16.1049C450.934 15.7173 451.903 16.0477 452.299 16.8494L455.986 24.3958C456.379 25.1975 456.044 26.1711 455.238 26.5632C455.008 26.6689 454.762 26.7306 454.528 26.7306Z" fill="black"></path><path d="M463.114 44.2859C462.52 44.2859 461.938 43.9555 461.661 43.3784L457.969 35.8364C457.572 35.0347 457.907 34.0567 458.718 33.669C459.524 33.2769 460.493 33.6117 460.89 34.4135L464.577 41.9554C464.969 42.7572 464.634 43.7264 463.832 44.1273C463.599 44.2374 463.357 44.2859 463.114 44.2859Z" fill="black"></path><path d="M392.515 33.1139C390.528 33.1139 388.559 34.1272 387.422 35.9466C386.589 37.2814 386.325 38.8541 386.691 40.3607C387.043 41.8321 387.946 43.0744 389.25 43.8585C391.973 45.5061 395.594 44.6074 397.308 41.8585C398.149 40.5149 398.409 38.9422 398.043 37.4356C397.7 35.9642 396.783 34.7219 395.493 33.9377C394.563 33.3782 393.541 33.1139 392.515 33.1139ZM392.211 47.9247C390.616 47.9247 389.012 47.5106 387.567 46.6339C385.519 45.4004 384.083 43.44 383.532 41.114C382.964 38.7572 383.374 36.3078 384.673 34.2241C387.321 29.9773 392.929 28.6029 397.167 31.1624C399.215 32.3959 400.651 34.3562 401.202 36.6822C401.77 39.0391 401.365 41.4885 400.065 43.5722C398.321 46.374 395.286 47.9247 392.211 47.9247Z" fill="black"></path><path d="M261.596 811.505C259.68 811.505 257.781 812.435 256.623 814.144C255.737 815.457 255.416 817.012 255.72 818.532C256.019 820.016 256.878 821.294 258.147 822.122C260.812 823.871 264.46 823.109 266.279 820.422C267.165 819.118 267.486 817.558 267.182 816.034C266.883 814.554 266.024 813.276 264.755 812.444C263.786 811.809 262.689 811.505 261.596 811.505ZM261.301 826.307C259.592 826.307 257.878 825.832 256.363 824.836C254.363 823.528 253.006 821.514 252.535 819.171C252.059 816.792 252.557 814.36 253.936 812.325C256.742 808.179 262.398 807.012 266.539 809.734C268.535 811.043 269.896 813.052 270.367 815.395C270.839 817.779 270.345 820.21 268.971 822.241C267.187 824.876 264.257 826.307 261.301 826.307Z" fill="black"></path><path d="M400.536 867.651C400.461 867.651 400.386 867.647 400.312 867.634C359.505 861.946 320.068 849.462 283.081 830.541C282.284 830.131 281.967 829.153 282.376 828.356C282.786 827.554 283.764 827.241 284.561 827.651C321.223 846.409 360.316 858.779 400.757 864.422C401.646 864.546 402.268 865.365 402.14 866.255C402.03 867.065 401.329 867.651 400.536 867.651Z" fill="black"></path><path d="M318.253 731.284C318.253 739.624 311.31 746.377 302.747 746.377C294.187 746.377 287.244 739.624 287.244 731.284C287.244 722.949 294.187 716.187 302.747 716.187C311.31 716.187 318.253 722.949 318.253 731.284Z" fill="#FF5656"></path><path d="M360.637 803.091C360.241 803.091 359.844 802.95 359.532 802.655C358.875 802.043 358.84 801.021 359.452 800.36L365.184 794.236C365.796 793.58 366.827 793.545 367.483 794.157C368.14 794.769 368.175 795.791 367.558 796.448L361.827 802.576C361.505 802.924 361.073 803.091 360.637 803.091Z" fill="black"></path><path d="M347.28 817.373C346.884 817.373 346.487 817.228 346.175 816.937C345.514 816.32 345.483 815.298 346.095 814.642L351.827 808.514C352.448 807.858 353.47 807.823 354.122 808.435C354.778 809.047 354.814 810.074 354.201 810.73L348.465 816.858C348.144 817.202 347.712 817.373 347.28 817.373Z" fill="black"></path><path d="M352.756 803.36C352.36 803.36 351.954 803.21 351.642 802.924L345.514 797.184C344.857 796.571 344.822 795.545 345.439 794.893C346.051 794.236 347.073 794.201 347.73 794.814L353.862 800.549C354.514 801.162 354.549 802.192 353.937 802.844C353.615 803.188 353.183 803.36 352.756 803.36Z" fill="black"></path><path d="M367.029 816.717C366.633 816.717 366.236 816.571 365.919 816.276L359.791 810.541C359.139 809.928 359.104 808.902 359.716 808.25C360.329 807.598 361.355 807.563 362.012 808.17L368.144 813.906C368.796 814.519 368.831 815.545 368.219 816.201C367.897 816.541 367.465 816.717 367.029 816.717Z" fill="black"></path></svg> 